<svg xmlns="http://www.w3.org/2000/svg" xmlns:xlink="http://www.w3.org/1999/xlink" class="httpgd" width="800.00" height="600.00" viewBox="0 0 615.38 461.54">
<defs>
  <style type='text/css'><![CDATA[
    .httpgd line, .httpgd polyline, .httpgd polygon, .httpgd path, .httpgd rect, .httpgd circle {
      fill: none;
      stroke: #000000;
      stroke-linecap: round;
      stroke-linejoin: round;
      stroke-miterlimit: 10.00;
    }
  ]]></style>
<clipPath id="c0"><rect x="0.00" y="0.00" width="615.38" height="461.54"/></clipPath>
<clipPath id="c1"><rect x="42.93" y="38.85" width="566.98" height="391.19"/></clipPath>
<clipPath id="c2"><rect x="0.00" y="0.00" width="615.38" height="461.54"/></clipPath>
</defs>
<rect width="100%" height="100%" style="stroke: none;fill: #FFFFFF;"/>
<g clip-path="url(#c0)">
<rect x="0.00" y="0.00" width="615.38" height="461.54" style="stroke-width: 1.07;stroke: #FFFFFF;fill: #FFFFFF;"/>
</g><g clip-path="url(#c1)">
<rect x="42.93" y="38.85" width="566.98" height="391.19" style="stroke-width: 1.07;stroke: none;fill: #EBEBEB;"/>
<polyline points="42.93,396.31 609.91,396.31" style="stroke-width: 0.53;stroke: #FFFFFF;stroke-linecap: butt;"/>
<polyline points="42.93,303.55 609.91,303.55" style="stroke-width: 0.53;stroke: #FFFFFF;stroke-linecap: butt;"/>
<polyline points="42.93,210.79 609.91,210.79" style="stroke-width: 0.53;stroke: #FFFFFF;stroke-linecap: butt;"/>
<polyline points="42.93,118.04 609.91,118.04" style="stroke-width: 0.53;stroke: #FFFFFF;stroke-linecap: butt;"/>
<polyline points="132.42,430.04 132.42,38.85" style="stroke-width: 0.53;stroke: #FFFFFF;stroke-linecap: butt;"/>
<polyline points="260.57,430.04 260.57,38.85" style="stroke-width: 0.53;stroke: #FFFFFF;stroke-linecap: butt;"/>
<polyline points="390.14,430.04 390.14,38.85" style="stroke-width: 0.53;stroke: #FFFFFF;stroke-linecap: butt;"/>
<polyline points="520.41,430.04 520.41,38.85" style="stroke-width: 0.53;stroke: #FFFFFF;stroke-linecap: butt;"/>
<polyline points="42.93,349.93 609.91,349.93" style="stroke-width: 1.07;stroke: #FFFFFF;stroke-linecap: butt;"/>
<polyline points="42.93,257.17 609.91,257.17" style="stroke-width: 1.07;stroke: #FFFFFF;stroke-linecap: butt;"/>
<polyline points="42.93,164.42 609.91,164.42" style="stroke-width: 1.07;stroke: #FFFFFF;stroke-linecap: butt;"/>
<polyline points="42.93,71.66 609.91,71.66" style="stroke-width: 1.07;stroke: #FFFFFF;stroke-linecap: butt;"/>
<polyline points="68.70,430.04 68.70,38.85" style="stroke-width: 1.07;stroke: #FFFFFF;stroke-linecap: butt;"/>
<polyline points="196.14,430.04 196.14,38.85" style="stroke-width: 1.07;stroke: #FFFFFF;stroke-linecap: butt;"/>
<polyline points="325.00,430.04 325.00,38.85" style="stroke-width: 1.07;stroke: #FFFFFF;stroke-linecap: butt;"/>
<polyline points="455.28,430.04 455.28,38.85" style="stroke-width: 1.07;stroke: #FFFFFF;stroke-linecap: butt;"/>
<polyline points="585.55,430.04 585.55,38.85" style="stroke-width: 1.07;stroke: #FFFFFF;stroke-linecap: butt;"/>
<polyline points="68.70,351.23 70.12,325.26 71.53,315.42 72.95,250.49 74.37,175.92 75.78,65.91 77.20,210.05 78.61,231.94 80.03,305.96 81.45,311.71 82.86,255.13 84.28,213.95 85.69,155.51 87.11,172.76 88.53,195.40 89.94,154.77 91.36,270.34 92.77,226.75 94.19,217.84 95.61,201.89 97.02,264.96 98.44,222.11 99.85,238.99 101.27,296.69 102.69,240.66 104.10,215.99 105.52,152.73 106.93,197.44 108.35,198.55 109.77,310.60 111.18,303.55 112.60,253.28 114.01,252.91 115.43,257.73 116.85,246.60 118.26,259.03 119.68,323.77 121.09,262.55 122.51,264.22 123.93,257.17 125.34,178.14 126.76,178.52 128.17,194.65 129.59,300.58 131.01,293.35 132.42,275.35 133.84,252.72 135.25,223.22 136.67,281.66 138.09,245.86 139.50,297.43 140.92,320.25 142.33,248.64 143.75,249.94 145.17,217.10 146.58,239.18 148.00,204.86 149.41,254.76 150.83,307.26 152.25,218.77 153.66,212.83 155.08,162.93 156.49,199.29 157.91,164.60 159.33,313.01 160.74,286.11 162.16,275.17 163.57,282.77 164.99,239.55 166.41,223.97 167.82,268.12 169.24,295.76 170.66,203.00 172.07,249.94 173.49,263.11 174.90,257.54 176.32,225.08 177.74,222.11 179.15,298.91 180.57,252.16 181.98,262.00 183.40,205.60 184.82,133.06 186.23,182.23 187.65,229.35 189.06,296.13 190.48,317.28 191.90,291.68 193.31,275.91 194.73,280.36 196.14,260.51 197.56,325.07 198.98,335.46 200.39,344.36 201.81,346.59 203.22,308.93 204.64,254.39 206.06,274.98 207.47,280.36 208.89,256.99 210.30,235.10 211.72,237.51 213.14,187.98 214.55,225.08 215.97,167.76 217.38,240.29 218.80,274.80 220.22,312.27 221.63,166.46 223.05,201.33 224.46,163.30 225.88,193.17 227.30,208.57 228.71,275.54 230.13,308.37 231.54,275.91 232.96,274.98 234.38,269.60 235.79,219.70 237.21,271.09 238.62,298.17 240.04,317.46 241.46,260.88 242.87,249.57 244.29,187.23 245.70,209.31 247.12,228.97 248.54,258.10 249.95,196.14 251.37,274.98 252.78,258.84 254.20,250.31 255.62,302.07 257.03,205.97 258.45,261.07 259.86,274.80 261.28,244.74 262.70,244.74 264.11,222.48 265.53,207.83 266.94,241.03 268.36,270.90 269.78,304.66 271.19,369.59 272.61,280.55 274.02,280.92 275.44,277.39 276.86,287.60 278.27,284.63 279.69,333.05 281.10,308.56 282.52,277.21 283.94,287.78 285.35,283.33 286.77,294.09 288.18,273.68 289.60,256.62 291.02,290.56 292.43,250.86 293.85,242.15 295.27,229.16 296.68,171.28 298.10,228.42 299.51,293.72 300.93,301.70 302.35,262.92 303.76,276.28 305.18,293.35 306.59,313.75 308.01,277.39 309.43,284.81 310.84,258.29 312.26,223.97 313.67,213.58 315.09,259.40 316.51,227.12 317.92,326.74 319.34,341.77 320.75,301.32 322.17,253.28 323.59,264.04 325.00,272.38 326.42,306.15 327.83,346.40 329.25,348.44 330.67,305.03 332.08,298.36 333.50,299.10 334.91,291.12 336.33,320.99 337.75,342.32 339.16,312.46 340.58,314.87 341.99,290.01 343.41,289.08 344.83,282.77 346.24,326.93 347.66,347.89 349.07,360.87 350.49,325.07 351.91,313.38 353.32,290.94 354.74,307.26 356.15,292.05 357.57,342.32 358.99,323.21 360.40,314.31 361.82,317.28 363.23,285.00 364.65,316.54 366.07,323.59 367.48,334.72 368.90,341.58 370.31,323.77 371.73,315.61 373.15,286.11 374.56,287.78 375.98,319.50 377.39,330.26 378.81,340.10 380.23,280.73 381.64,293.72 383.06,264.04 384.47,289.27 385.89,246.78 387.31,314.31 388.72,256.80 390.14,242.70 391.55,260.51 392.97,274.43 394.39,273.87 395.80,282.22 397.22,307.08 398.63,290.01 400.05,279.25 401.47,265.89 402.88,216.36 404.30,272.01 405.71,256.24 407.13,321.17 408.55,56.63 409.96,264.78 411.38,239.18 412.79,258.66 414.21,237.69 415.63,258.47 417.04,323.21 418.46,302.44 419.87,232.13 421.29,134.73 422.71,248.45 424.12,225.08 425.54,236.39 426.96,292.61 428.37,97.63 429.79,224.15 431.20,250.86 432.62,232.31 434.04,214.69 435.45,245.49 436.87,298.54 438.28,104.12 439.70,207.45 441.12,248.27 442.53,254.39 443.95,184.82 445.36,228.05 446.78,276.47 448.20,223.41 449.61,174.62 451.03,300.21 452.44,297.99 453.86,323.59 455.28,335.83 456.69,361.99 458.11,357.91 459.52,355.12 460.94,357.53 462.36,316.91 463.77,345.66 465.19,348.82 466.60,341.77 468.02,356.05 469.44,377.01 470.85,351.23 472.27,334.72 473.68,330.26 475.10,253.83 476.52,341.58 477.93,353.82 479.35,342.69 480.76,366.62 482.18,347.52 483.60,323.96 485.01,354.20 486.43,372.19 487.84,369.96 489.26,331.38 490.68,246.23 492.09,325.44 493.51,344.73 494.92,329.52 496.34,333.79 497.76,352.34 499.17,361.80 500.59,369.96 502.00,345.29 503.42,313.20 504.84,322.10 506.25,354.75 507.67,361.06 509.08,336.94 510.50,304.66 511.92,318.21 513.33,275.35 514.75,324.70 516.16,335.64 517.58,346.59 519.00,287.97 520.41,320.80 521.83,298.36 523.24,248.08 524.66,297.80 526.08,329.34 527.49,362.91 528.91,317.09 530.32,308.00 531.74,76.48 533.16,231.57 534.57,274.61 535.99,339.17 537.40,341.58 538.82,324.70 540.24,282.22 541.65,277.58 543.07,216.17 544.48,297.61 545.90,307.63 547.32,303.55 548.73,304.11 550.15,271.27 551.57,227.12 552.98,300.95 554.40,266.63 555.81,291.86 557.23,367.37 558.65,321.17 560.06,285.74 561.48,195.58 562.89,279.25 564.31,281.47 565.73,356.42 567.14,349.37 568.56,343.44 569.97,328.78 571.39,336.02 572.81,333.97 574.22,372.38 575.64,412.26 577.05,380.54 578.47,365.14 579.89,348.44 581.30,346.59 582.72,363.66 584.13,341.95" style="stroke-width: 1.07;stroke-linecap: butt;"/>
<polyline points="68.70,250.60 75.23,243.14 81.75,237.79 88.27,235.14 94.80,234.76 101.32,235.68 107.85,241.02 114.37,247.69 120.90,251.04 127.42,252.77 133.95,253.23 140.47,251.00 146.99,247.98 153.52,245.42 160.04,240.95 166.57,240.99 173.09,249.40 179.62,258.85 186.14,262.74 192.67,265.06 199.19,265.00 205.72,261.40 212.24,256.90 218.76,252.28 225.29,243.89 231.81,239.85 238.34,242.47 244.86,247.76 251.39,253.61 257.91,261.39 264.44,266.55 270.96,270.99 277.48,274.81 284.01,275.01 290.53,271.14 297.06,270.21 303.58,269.54 310.11,270.63 316.63,278.78 323.16,290.89 329.68,299.39 336.20,308.29 342.73,315.13 349.25,318.28 355.78,319.18 362.30,316.78 368.83,311.06 375.35,303.76 381.88,294.15 388.40,282.19 394.92,271.55 401.45,259.44 407.97,248.71 414.50,237.22 421.02,225.84 427.55,225.49 434.07,232.55 440.60,243.88 447.12,266.64 453.64,291.99 460.17,310.62 466.69,331.23 473.22,344.76 479.74,347.22 486.27,345.07 492.79,342.17 499.32,335.77 505.84,328.77 512.36,318.54 518.89,307.69 525.41,298.29 531.94,287.10 538.46,282.29 544.99,283.94 551.51,289.64 558.04,299.56 564.56,313.46 571.08,331.60 577.61,354.01 584.13,380.61" style="stroke-width: 2.13;stroke: #0000FF;stroke-linecap: butt;"/>
<line x1="448.20" y1="430.04" x2="448.20" y2="38.85" style="stroke-width: 2.13;stroke: #FF0000; stroke-dasharray: 11.38, 11.38;stroke-linecap: butt;"/>
</g><g clip-path="url(#c2)">
<g><text x="38.00" y="353.08" text-anchor="end" style="font-family: Arial;font-size: 8.80px;fill: #4D4D4D;" textLength="14.69px" lengthAdjust="spacingAndGlyphs">500</text></g>
<g><text x="38.00" y="260.32" text-anchor="end" style="font-family: Arial;font-size: 8.80px;fill: #4D4D4D;" textLength="19.58px" lengthAdjust="spacingAndGlyphs">1000</text></g>
<g><text x="38.00" y="167.57" text-anchor="end" style="font-family: Arial;font-size: 8.80px;fill: #4D4D4D;" textLength="19.58px" lengthAdjust="spacingAndGlyphs">1500</text></g>
<g><text x="38.00" y="74.81" text-anchor="end" style="font-family: Arial;font-size: 8.80px;fill: #4D4D4D;" textLength="19.58px" lengthAdjust="spacingAndGlyphs">2000</text></g>
<polyline points="40.19,349.93 42.93,349.93" style="stroke-width: 1.07;stroke: #333333;stroke-linecap: butt;"/>
<polyline points="40.19,257.17 42.93,257.17" style="stroke-width: 1.07;stroke: #333333;stroke-linecap: butt;"/>
<polyline points="40.19,164.42 42.93,164.42" style="stroke-width: 1.07;stroke: #333333;stroke-linecap: butt;"/>
<polyline points="40.19,71.66 42.93,71.66" style="stroke-width: 1.07;stroke: #333333;stroke-linecap: butt;"/>
<polyline points="68.70,432.78 68.70,430.04" style="stroke-width: 1.07;stroke: #333333;stroke-linecap: butt;"/>
<polyline points="196.14,432.78 196.14,430.04" style="stroke-width: 1.07;stroke: #333333;stroke-linecap: butt;"/>
<polyline points="325.00,432.78 325.00,430.04" style="stroke-width: 1.07;stroke: #333333;stroke-linecap: butt;"/>
<polyline points="455.28,432.78 455.28,430.04" style="stroke-width: 1.07;stroke: #333333;stroke-linecap: butt;"/>
<polyline points="585.55,432.78 585.55,430.04" style="stroke-width: 1.07;stroke: #333333;stroke-linecap: butt;"/>
<g><text x="68.70" y="441.27" text-anchor="middle" style="font-family: Arial;font-size: 8.80px;fill: #4D4D4D;" textLength="36.22px" lengthAdjust="spacingAndGlyphs">Jan 2021</text></g>
<g><text x="196.14" y="441.27" text-anchor="middle" style="font-family: Arial;font-size: 8.80px;fill: #4D4D4D;" textLength="35.73px" lengthAdjust="spacingAndGlyphs">Apr 2021</text></g>
<g><text x="325.00" y="441.27" text-anchor="middle" style="font-family: Arial;font-size: 8.80px;fill: #4D4D4D;" textLength="33.28px" lengthAdjust="spacingAndGlyphs">Jul 2021</text></g>
<g><text x="455.28" y="441.27" text-anchor="middle" style="font-family: Arial;font-size: 8.80px;fill: #4D4D4D;" textLength="35.73px" lengthAdjust="spacingAndGlyphs">Okt 2021</text></g>
<g><text x="585.55" y="441.27" text-anchor="middle" style="font-family: Arial;font-size: 8.80px;fill: #4D4D4D;" textLength="36.22px" lengthAdjust="spacingAndGlyphs">Jan 2022</text></g>
<g><text x="326.42" y="453.74" text-anchor="middle" style="font-family: Arial;font-size: 11.00px;" textLength="23.24px" lengthAdjust="spacingAndGlyphs">Date</text></g>
<g><text transform="translate(13.36,234.45) rotate(-90.00)" text-anchor="middle" style="font-family: Arial;font-size: 11.00px;" textLength="29.36px" lengthAdjust="spacingAndGlyphs">Count</text></g>
<g><text x="42.93" y="31.05" style="font-family: Arial;font-size: 11.00px;" textLength="221.37px" lengthAdjust="spacingAndGlyphs">Red line marks German Federal Election Day</text></g>
<g><text x="42.93" y="14.93" style="font-family: Arial;font-size: 13.20px;" textLength="282.80px" lengthAdjust="spacingAndGlyphs">Daily Tweet Frequency in 2021 of all Candidates</text></g>
</g>
</svg>